<svg height="512pt" viewBox="0 -81 512.00405 512" width="512pt" xmlns="http://www.w3.org/2000/svg"><path d="m284.199219 182.210938v-21.964844h-56.402344v21.960937c0 6.351563-3.367187 12.28125-8.925781 15.351563-23.5625 13.011718-39.574219 38.027344-39.78125 66.796875-.308594 42.070312 33.746094 76.894531 75.8125 77.480469 42.980468.597656 78.007812-34.0625 78.007812-76.90625 0-28.980469-16.03125-54.21875-39.707031-67.328126-5.582031-3.09375-9.003906-9.011718-9.003906-15.390624zm0 0" fill="#ffde55"/><path d="m213.273438 264.355469c.210937-28.769531 16.21875-53.785157 39.78125-66.796875 5.558593-3.070313 8.925781-9.003906 8.925781-15.351563v-21.960937h-34.183594v21.960937c0 6.347657-3.367187 12.28125-8.925781 15.351563-23.5625 13.011718-39.574219 38.027344-39.78125 66.796875-.308594 42.070312 33.746094 76.894531 75.8125 77.480469 6.273437.085937 12.378906-.582032 18.226562-1.914063-34.390625-7.863281-60.125-38.96875-59.855468-75.566406zm0 0" fill="#ffcd00"/><path d="m285.761719 178.476562h-59.527344c-3.621094 0-6.554687-2.9375-6.554687-6.558593v-58.148438c0-3.621093 2.933593-6.558593 6.554687-6.558593h59.527344c3.621093 0 6.554687 2.9375 6.554687 6.558593v58.148438c0 3.621093-2.933594 6.558593-6.554687 6.558593zm0 0" fill="#444346"/><path d="m253.859375 171.917969v-58.148438c0-3.621093 2.9375-6.558593 6.558594-6.558593h-34.183594c-3.621094 0-6.554687 2.9375-6.554687 6.558593v58.148438c0 3.621093 2.933593 6.558593 6.554687 6.558593h34.183594c-3.621094 0-6.558594-2.9375-6.558594-6.558593zm0 0" fill="#222223"/><path d="m288.472656 155.664062h-64.949218c-7.078126 0-12.816407-5.738281-12.816407-12.820312 0-7.078125 5.738281-12.816406 12.816407-12.816406h64.949218c7.078125 0 12.816406 5.738281 12.816406 12.816406 0 7.082031-5.738281 12.820312-12.816406 12.820312zm0 0" fill="#57565c"/><path d="m236.34375 142.84375c0-7.078125 5.738281-12.816406 12.816406-12.816406h-25.636718c-7.078126 0-12.820313 5.738281-12.820313 12.816406 0 7.082031 5.742187 12.820312 12.820313 12.820312h25.636718c-7.078125 0-12.816406-5.738281-12.816406-12.820312zm0 0" fill="#444346"/><path d="m433.382812 152.742188-5.683593-21.214844-54.480469 14.597656 5.683594 21.210938c1.640625 6.136718-.074219 12.738281-4.648438 17.140624-19.394531 18.667969-28.382812 46.972657-21.140625 74.816407 10.59375 40.71875 52.5 65.539062 93.285157 55.21875 41.667968-10.546875 66.53125-53.09375 55.445312-94.472657-7.5-27.996093-29.515625-48.222656-55.78125-54.761718-6.191406-1.539063-11.027344-6.371094-12.679688-12.535156zm0 0" fill="#f46262"/><path d="m386.132812 250.449219c-7.242187-27.847657 1.746094-56.152344 21.136719-74.820313 4.574219-4.402344 6.292969-11.003906 4.652344-17.136718l-5.683594-21.214844-33.019531 8.847656 5.683594 21.214844c1.640625 6.132812-.074219 12.734375-4.648438 17.136718-19.394531 18.667969-28.382812 46.972657-21.140625 74.820313 10.59375 40.714844 52.5 65.539063 93.285157 55.214844 6.082031-1.539063 11.804687-3.765625 17.113281-6.566407-35.253907 1.308594-68.164063-22.078124-77.378907-57.496093zm0 0" fill="#d65b5b"/><path d="m433.925781 148.730469-57.5 15.40625c-3.496093.9375-7.089843-1.136719-8.027343-4.636719l-15.050782-56.167969c-.9375-3.496093 1.136719-7.09375 4.636719-8.03125l57.496094-15.40625c3.5-.933593 7.09375 1.140625 8.03125 4.636719l15.050781 56.171875c.9375 3.496094-1.140625 7.09375-4.636719 8.027344zm0 0" fill="#444346"/><path d="m401.414062 150.65625-15.046874-56.171875c-.9375-3.496094 1.136718-7.09375 4.632812-8.027344l-33.015625 8.847657c-3.5.933593-5.574219 4.53125-4.636719 8.027343l15.050782 56.171875c.9375 3.496094 4.53125 5.570313 8.03125 4.636719l33.015624-8.847656c-3.496093.933593-7.09375-1.140625-8.03125-4.636719zm0 0" fill="#222223"/><path d="m430.640625 125.996094-62.734375 16.808594c-6.839844 1.832031-13.867188-2.226563-15.699219-9.066407-1.832031-6.835937 2.222657-13.867187 9.0625-15.699219l62.734375-16.808593c6.839844-1.832031 13.867188 2.226562 15.699219 9.066406 1.832031 6.835937-2.226563 13.867187-9.0625 15.699219zm0 0" fill="#57565c"/><path d="m376.96875 127.105469c-1.832031-6.839844 2.226562-13.867188 9.066406-15.699219l-24.765625 6.636719c-6.839843 1.832031-10.894531 8.859375-9.0625 15.699219 1.832031 6.835937 8.859375 10.894531 15.699219 9.0625l24.761719-6.636719c-6.839844 1.832031-13.867188-2.226563-15.699219-9.0625zm0 0" fill="#444346"/><path d="m133.058594 167.339844 5.683594-21.214844-54.480469-14.597656-5.683594 21.210937c-1.640625 6.132813-6.429687 10.992188-12.59375 12.519531-26.128906 6.46875-48.066406 26.488282-55.714844 54.222657-11.1875 40.558593 12.695313 83.007812 53.175781 94.460937 41.359376 11.703125 84.167969-12.710937 95.253907-54.09375 7.5-27.992187-1.449219-56.519531-20.925781-75.3125-4.59375-4.429687-6.367188-11.03125-4.714844-17.195312zm0 0" fill="#92dd7a"/><path d="m43.285156 228.332031c7.652344-27.738281 29.589844-47.757812 55.714844-54.226562 6.164062-1.527344 10.953125-6.386719 12.597656-12.519531l5.683594-21.210938-33.019531-8.847656-5.683594 21.210937c-1.640625 6.132813-6.433594 10.992188-12.59375 12.519531-26.128906 6.46875-48.066406 26.488282-55.714844 54.226563-11.1875 40.554687 12.695313 83.003906 53.175781 94.457031 6.039063 1.710938 12.105469 2.644532 18.101563 2.871094-31.183594-16.496094-47.992187-53.203125-38.261719-88.480469zm0 0" fill="#7ec66a"/><path d="m135.535156 164.140625-57.5-15.40625c-3.496094-.9375-5.570312-4.535156-4.636718-8.03125l15.050781-56.167969c.9375-3.5 4.535156-5.574218 8.03125-4.636718l57.496093 15.40625c3.5.933593 5.574219 4.53125 4.636719 8.027343l-15.046875 56.171875c-.941406 3.496094-4.535156 5.570313-8.03125 4.636719zm0 0" fill="#444346"/><path d="m106.417969 149.550781 15.050781-56.171875c.9375-3.496094 4.53125-5.574218 8.03125-4.636718l-33.019531-8.847657c-3.496094-.933593-7.089844 1.140625-8.03125 4.636719l-15.050781 56.171875c-.933594 3.496094 1.140624 7.09375 4.636718 8.03125l33.019532 8.847656c-3.496094-.941406-5.574219-4.535156-4.636719-8.03125zm0 0" fill="#222223"/><path d="m144.058594 142.804688-62.734375-16.808594c-6.839844-1.832032-10.898438-8.863282-9.066407-15.699219 1.832032-6.839844 8.863282-10.898437 15.699219-9.066406l62.734375 16.808593c6.839844 1.832032 10.894532 8.863282 9.0625 15.699219-1.828125 6.839844-8.859375 10.898438-15.695312 9.066407zm0 0" fill="#57565c"/><path d="m97.019531 116.929688c1.832031-6.835938 8.863281-10.894532 15.699219-9.0625l-24.761719-6.636719c-6.839843-1.832031-13.867187 2.226562-15.699219 9.066406-1.832031 6.835937 2.226563 13.867187 9.066407 15.699219l24.761719 6.632812c-6.839844-1.832031-10.894532-8.859375-9.066407-15.699218zm0 0" fill="#444346"/><path d="m509.085938 218.097656c-7.941407-29.648437-31.398438-52.675781-61.214844-60.097656-2.761719-.6875-5.054688-2.550781-6.378906-5.042969 1.140624-1 2.128906-2.179687 2.90625-3.53125 1.878906-3.25 2.378906-7.039062 1.40625-10.664062l-3.164063-11.8125c4.277344-4.929688 6.117187-11.832031 4.304687-18.597657-1.785156-6.65625-6.773437-11.804687-13.03125-13.957031l-3.160156-11.804687c-.972656-3.625-3.296875-6.65625-6.550781-8.535156-3.25-1.875-7.039063-2.375-10.664063-1.402344l-21.503906 5.761718-3.058594-11.414062c18.875-5.433594 35.429688-11.394531 49.207032-16.996094 44.027344-17.890625 69.539062-35.613281 70.601562-36.359375 3.394532-2.375 4.214844-7.054687 1.839844-10.445312-2.378906-3.394531-7.054688-4.214844-10.445312-1.839844-.65625.460937-44.414063 30.605469-115.097657 51.113281l-.363281-1.355468c-1.070312-4.003907-5.183594-6.378907-9.1875-5.304688-4 1.074219-6.371094 5.183594-5.300781 9.1875l.382812 1.433594c-31.46875 8.078125-67.597656 13.945312-107.136719 14.609375-.214843-3.949219-3.476562-7.089844-7.480468-7.089844s-7.265625 3.140625-7.480469 7.09375c-40.003906-.679687-76.308594-6.722656-107.175781-14.609375l.386718-1.4375c1.070313-4.003906-1.300781-8.113281-5.300781-9.1875-4.003906-1.074219-8.113281 1.300781-9.1875 5.304688l-.371093 1.386718c-17.992188-5.195312-33.792969-10.875-46.96875-16.210937-42.46875-17.210938-67.691407-34.65625-68.085938-34.933594-3.394531-2.375-8.070312-1.550781-10.445312 1.839844-2.378907 3.394531-1.554688 8.070312 1.839843 10.445312 1.0625.746094 26.574219 18.46875 70.601563 36.359375 13.769531 5.597656 30.3125 11.554688 49.175781 16.988282l-3.0625 11.421874-21.503906-5.761718c-7.484375-2.011719-15.207031 2.449218-17.214844 9.9375l-3.160156 11.804687c-6.257813 2.152344-11.246094 7.300781-13.03125 13.957031-1.8125 6.765626.027343 13.667969 4.304687 18.597657l-3.164062 11.808593c-.972656 3.628907-.472656 7.417969 1.40625 10.667969.78125 1.351563 1.769531 2.53125 2.910156 3.535157-1.316406 2.492187-3.574219 4.34375-6.292969 5.015624-29.609375 7.332032-53.039062 30.136719-61.140625 59.511719-12.296875 44.582031 13.886719 91.085938 58.367188 103.671875 7.53125 2.128906 15.273437 3.1875 23.003906 3.1875 11.800781 0 23.5625-2.46875 34.449219-7.339844 3.78125-1.691406 5.472656-6.128906 3.78125-9.910156-1.691407-3.78125-6.128907-5.472656-9.910157-3.78125-14.808593 6.628906-31.585937 7.839844-47.242187 3.410156-36.574219-10.347656-58.101563-48.589843-47.988281-85.25 6.660156-24.15625 25.929687-42.910156 50.285156-48.941406 7.539062-1.863281 13.699219-7.199218 16.78125-14.289062l40.554688 10.867187c-.867188 7.675781 1.824218 15.398438 7.441406 20.820313 18.1875 17.546875 25.425781 43.59375 18.894531 67.976562-3.21875 12.007813-9.585937 22.929688-18.414063 31.574219-2.957031 2.898437-3.007812 7.644531-.109374 10.605469 1.46875 1.5 3.414062 2.25 5.359374 2.25 1.894532 0 3.789063-.710938 5.246094-2.140625 10.742188-10.523438 18.492188-23.808594 22.402344-38.410157 7.945312-29.648437-.851562-61.316406-22.960938-82.652343-2.046874-1.972657-3.101562-4.722657-3.003906-7.539063 1.484375-.296875 2.929688-.839844 4.28125-1.621094 3.253906-1.875 5.578125-4.90625 6.550782-8.535156l3.160156-11.800781c6.257812-2.15625 11.25-7.304687 13.03125-13.960937 1.8125-6.765626-.027344-13.664063-4.304688-18.59375l3.164063-11.8125c.972656-3.625.472656-7.414063-1.402344-10.667969-1.878906-3.25-4.910156-5.574219-8.535156-6.546875l-21.507813-5.761719 3.050782-11.375c31.964843 8.179687 69.574218 14.441406 111.035156 15.125v13.664063h-22.265625c-7.75 0-14.054688 6.308593-14.054688 14.058593v12.226563c-5.410156 3.65625-8.972656 9.84375-8.972656 16.847656 0 7.007812 3.5625 13.195312 8.972656 16.847656v12.230469c0 5.515625 3.203125 10.289063 7.84375 12.589844-.625 2.75-2.324219 5.128906-4.777343 6.480469-26.707032 14.75-43.433594 42.839843-43.65625 73.308593-.339844 46.246094 36.988281 84.390625 83.207031 85.035157.398437.003906.789062.007812 1.183593.007812 39.832032-.003906 74.476563-28.027344 82.640626-67.046875.847656-4.054687-1.75-8.03125-5.804688-8.878906-4.054688-.851563-8.03125 1.75-8.878906 5.808593-6.710938 32.078126-35.199219 55.117188-67.957032 55.117188-.324218 0-.648437-.003906-.972656-.007812-38.003906-.527344-68.699218-31.894532-68.417968-69.925782.179687-25.054687 13.9375-48.15625 35.90625-60.289062 6.796874-3.75 11.367187-10.496094 12.511718-18.144532h41.980469c1.152344 7.640626 5.75 14.402344 12.582031 18.1875 18.578125 10.285157 31.652344 28.894532 34.976563 49.769532.585937 3.691406 3.773437 6.324218 7.394531 6.324218.390625 0 .789062-.03125 1.1875-.09375 4.089844-.652343 6.878906-4.496093 6.230469-8.585937-4.039063-25.398437-19.9375-48.03125-42.523438-60.539063-2.492187-1.378906-4.226562-3.777343-4.859375-6.53125 4.636719-2.300781 7.839844-7.070312 7.839844-12.589843v-12.226563c5.410156-3.652344 8.972656-9.839844 8.972656-16.847656 0-7.003906-3.5625-13.191406-8.972656-16.847656v-12.226563c0-7.753906-6.304688-14.058593-14.054688-14.058593h-22.265624v-13.664063c41.445312-.683594 79.046874-6.941406 111.003906-15.117187l3.046875 11.363281-21.503907 5.761719c-3.628906.972656-6.660156 3.300781-8.535156 6.550781-1.878906 3.253906-2.378906 7.039062-1.402344 10.664062l3.164063 11.8125c-4.28125 4.933594-6.121094 11.832031-4.308594 18.597657 1.785157 6.65625 6.773438 11.804687 13.03125 13.960937l3.160157 11.800781c.972656 3.625 3.300781 6.65625 6.550781 8.535156 1.351562.78125 2.800781 1.324219 4.289062 1.621094.101563 2.808594-.929687 5.535156-2.941406 7.472656-21.976563 21.15625-30.863281 52.621094-23.191406 82.109376 9.851562 37.882812 44.265625 63.175781 81.78125 63.175781 6.804687 0 13.714843-.832031 20.597656-2.574219 22.089844-5.59375 40.601563-19.484375 52.121094-39.125 11.523437-19.636719 14.625-42.566406 8.730469-64.558594zm-372.523438-61.445312-55.054688-14.753906c-.007812 0-.015624-.003907-.019531-.007813-.011719 0-.015625 0-.023437-.003906l-.578125-.152344 2.023437-7.550781 55.675782 14.917968zm12.1875-31.367188c2.835938.757813 4.523438 3.683594 3.761719 6.515625-.621094 2.320313-2.730469 3.945313-5.128907 3.945313-.460937 0-.929687-.0625-1.382812-.183594l-62.734375-16.8125c-2.835937-.757812-4.523437-3.683594-3.765625-6.515625.625-2.320313 2.734375-3.945313 5.132812-3.945313.460938 0 .929688.0625 1.382813.183594zm.355469-15.433594-55.679688-14.917968 2.023438-7.546875 55.675781 14.917969zm78.710937 61.125c-.007812 0-.011718 0-.019531 0s-.011719 0-.019531 0h-.597656v-7.8125h57.640624v7.8125zm60.65625-33.449218c2.929688 0 5.316406 2.386718 5.316406 5.316406 0 2.933594-2.386718 5.320312-5.316406 5.320312h-64.949218c-2.933594 0-5.316407-2.386718-5.316407-5.320312 0-2.929688 2.386719-5.316406 5.316407-5.316406zm-3.65625-15h-57.636718v-7.8125h57.636718zm91.199219 33.957031c-.007813.003906-.015625.003906-.019531.003906-.007813.003907-.011719.003907-.019532.007813l-.578124.15625-2.023438-7.550782 55.679688-14.917968 2.019531 7.546875zm49.929687-48.011719c.457032-.121094.921876-.183594 1.386719-.183594 2.394531 0 4.503907 1.625 5.128907 3.945313.757812 2.832031-.929688 5.757813-3.761719 6.515625l-62.734375 16.8125c-.457032.121094-.921875.183594-1.386719.183594-2.394531 0-4.507813-1.625-5.128906-3.945313-.757813-2.835937.929687-5.757812 3.761719-6.515625zm-9.433593-21.085937 2.023437 7.546875-55.675781 14.917968-2.023437-7.546874zm70.910156 187.683593c-9.476563 16.148438-24.695313 27.574219-42.863281 32.171876-36.847656 9.324218-74.613282-13.03125-84.183594-49.835938-6.3125-24.25 1.003906-50.125 19.078125-67.527344 5.59375-5.386718 8.261719-13.085937 7.386719-20.765625l40.554687-10.867187c3.089844 7.082031 9.277344 12.425781 16.859375 14.308594 24.519532 6.105468 43.8125 25.042968 50.347656 49.425781 4.84375 18.082031 2.292969 36.9375-7.179687 53.089843zm0 0"/></svg>