<?xml version="1.0" encoding="UTF-8"?>
<svg enable-background="new 0 0 705 65" version="1.1" viewBox="0 0 705 65" xml:space="preserve" xmlns="http://www.w3.org/2000/svg">
<path class="st0" fill="#ffffff" d="m704.9 37c-0.8-7.9-8.2-14.1-17.3-14.1-3.8 0-7.3 1.1-10.1 2.9-3.5-1.8-8.2-2.9-13.5-2.9-7.3 0-13.7 2.2-17 5.4-1.9-6.2-5.6-10.4-9.9-10.4-5.2 0-9.6 6.1-10.8 14.4-4.4-8.5-14.6-14.4-26.5-14.4-12.1 0-22.4 6.1-26.7 14.7-5.8-6.2-23.9-10.8-45.3-10.8-21.1 0-39 4.4-45.1 10.5-2.4-3.7-10.2-6.5-19.5-6.5-5.8 0-11 1.1-14.7 2.8-3.1-7.8-12.4-13.4-23.4-13.4-11.4 0-20.9 6-23.7 14.2-3-2.2-7-3.6-11.5-3.6-5.1 0-9.7 1.8-12.7 4.6-2.1-8.7-13.5-15.4-27.4-15.4-13.3 0-24.4 6.2-27.1 14.4-5-1.5-11.1-2.4-17.7-2.4-9.9 0-18.7 2-24.5 5.2-1.4-14.2-17.3-25.6-36.9-25.6-12.1 0-22.8 4.3-29.6 11-1.5-1.2-3.5-2-5.8-2-1.8 0-3.4 0.5-4.7 1.3 0-0.4 0.1-0.8 0.1-1.3 0-8.6-7.5-15.6-16.8-15.6-8.1 0-14.9 5.4-16.5 12.5-5.4-3.5-12.4-5.5-20.1-5.5-14.4 0-26.6 7.4-30.5 17.5-12.6-3.6-30.6-5.9-50.6-5.9-38.2-0.1-69.1 8.2-69.1 18.4v28h705l-0.1-28z"/>
</svg>
